<?xml version="1.0" encoding="UTF-8"?>
<svg enable-background="new 0 0 15 15" version="1.1" viewBox="0 0 15 15" xmlns="http://www.w3.org/2000/svg">
 <path d="m10 1c-0.5523 0-1 0.4477-1 1s0.4477 1 1 1 1-0.4477 1-1-0.4477-1-1-1zm-1.8555 1.9941c-0.13 5e-4 -0.2547 0.0517-0.3477 0.1426l-2.6406 2.5c-0.2256 0.2128-0.2051 0.5775 0.043 0.7637l1.8008 1.3496v2.75c-0.01 0.6762 1.0096 0.6762 1 0v-3c3e-4 -0.1574-0.0735-0.3057-0.1992-0.4004l-0.7676-0.5762 1.818-1.7212 0.7484 0.9985c0.0947 0.1258 0.243 0.1996 0.4004 0.1993h1.5c0.6761 0.01 0.6761-1.0096 0-1h-1.25l-0.75-1-0.5996-0.8008c-0.0901-0.1236-0.2319-0.1992-0.3848-0.2051h-0.3711zm-5.1445 4.0059c-1.6569 0-3 1.3432-3 3s1.3431 3 3 3 3-1.3432 3-3-1.3431-3-3-3zm9 0c-1.6569 0-3 1.3432-3 3s1.3431 3 3 3 3-1.3432 3-3-1.3431-3-3-3zm-9 1c1.1046 0 2 0.8954 2 2s-0.8954 2-2 2-2-0.8954-2-2 0.8954-2 2-2zm9 0c1.1046 0 2 0.8954 2 2s-0.8954 2-2 2-2-0.8954-2-2 0.8954-2 2-2z"/>
</svg>
